<svg width="200" height="201" viewBox="0 0 200 201" fill="none" xmlns="http://www.w3.org/2000/svg">
<ellipse cx="100" cy="100.167" rx="100" ry="100.167" fill="black"/>
<path d="M22.5186 44.1826H28.7197L37.8506 70.2812L46.9814 44.1826H53.1826L40.3408 79.7295H35.3604L22.5186 44.1826ZM19.1738 44.1826H25.3506L26.4736 69.6221V79.7295H19.1738V44.1826ZM50.3506 44.1826H56.5518V79.7295H49.2275V69.6221L50.3506 44.1826Z" fill="#FFD000"/>
<path d="M74.8926 80.2178C72.8418 80.2178 71.0026 79.8923 69.375 79.2412C67.7474 78.5739 66.3639 77.6543 65.2246 76.4824C64.1016 75.3105 63.2389 73.9515 62.6367 72.4053C62.0345 70.8428 61.7334 69.1826 61.7334 67.4248V66.4482C61.7334 64.4463 62.0182 62.6152 62.5879 60.9551C63.1576 59.2949 63.9714 57.8545 65.0293 56.6338C66.1035 55.4131 67.4056 54.4772 68.9355 53.8262C70.4655 53.1589 72.1908 52.8252 74.1113 52.8252C75.9831 52.8252 77.6432 53.1344 79.0918 53.7529C80.5404 54.3714 81.7529 55.2503 82.7295 56.3896C83.7223 57.529 84.471 58.8962 84.9756 60.4912C85.4801 62.07 85.7324 63.8278 85.7324 65.7646V68.6943H64.7363V64.0068H78.8232V63.4697C78.8232 62.4932 78.6442 61.6224 78.2861 60.8574C77.9443 60.0762 77.4235 59.4577 76.7236 59.002C76.0238 58.5462 75.1286 58.3184 74.0381 58.3184C73.1104 58.3184 72.3128 58.5218 71.6455 58.9287C70.9782 59.3356 70.4329 59.9053 70.0098 60.6377C69.6029 61.3701 69.2936 62.2327 69.082 63.2256C68.8867 64.2021 68.7891 65.2764 68.7891 66.4482V67.4248C68.7891 68.4827 68.9355 69.4593 69.2285 70.3545C69.5378 71.2497 69.9691 72.0228 70.5225 72.6738C71.0921 73.3249 71.7757 73.8294 72.5732 74.1875C73.387 74.5456 74.3066 74.7246 75.332 74.7246C76.6016 74.7246 77.7816 74.4805 78.8721 73.9922C79.9788 73.4876 80.931 72.7308 81.7285 71.7217L85.1465 75.4326C84.5931 76.2301 83.8363 76.9951 82.876 77.7275C81.932 78.46 80.7926 79.0622 79.458 79.5342C78.1234 79.9899 76.6016 80.2178 74.8926 80.2178Z" fill="#FFD000"/>
<path d="M103.994 73.7725V62.0049C103.994 61.1585 103.856 60.4342 103.579 59.832C103.302 59.2135 102.871 58.7334 102.285 58.3916C101.715 58.0498 100.975 57.8789 100.063 57.8789C99.2822 57.8789 98.6068 58.0173 98.0371 58.2939C97.4675 58.5544 97.028 58.9368 96.7188 59.4414C96.4095 59.9297 96.2549 60.5075 96.2549 61.1748H89.2236C89.2236 60.0518 89.4841 58.9857 90.0049 57.9766C90.5257 56.9674 91.2826 56.0804 92.2754 55.3154C93.2682 54.5342 94.4482 53.9238 95.8154 53.4844C97.1989 53.0449 98.7451 52.8252 100.454 52.8252C102.505 52.8252 104.328 53.167 105.923 53.8506C107.518 54.5342 108.771 55.5596 109.683 56.9268C110.61 58.2939 111.074 60.0029 111.074 62.0537V73.3574C111.074 74.806 111.164 75.9941 111.343 76.9219C111.522 77.8333 111.782 78.6309 112.124 79.3145V79.7295H105.02C104.678 79.0133 104.417 78.1182 104.238 77.0439C104.076 75.9534 103.994 74.863 103.994 73.7725ZM104.922 63.6406L104.971 67.6201H101.04C100.112 67.6201 99.3066 67.7259 98.623 67.9375C97.9395 68.1491 97.3779 68.4502 96.9385 68.8408C96.499 69.2152 96.1735 69.6546 95.9619 70.1592C95.7666 70.6637 95.6689 71.2171 95.6689 71.8193C95.6689 72.4215 95.8073 72.9668 96.084 73.4551C96.3607 73.9271 96.7594 74.3014 97.2803 74.5781C97.8011 74.8385 98.4115 74.9687 99.1113 74.9687C100.169 74.9687 101.089 74.7572 101.87 74.334C102.651 73.9108 103.254 73.39 103.677 72.7715C104.116 72.153 104.344 71.5671 104.36 71.0137L106.216 73.9922C105.955 74.6595 105.597 75.3512 105.142 76.0674C104.702 76.7835 104.141 77.459 103.457 78.0937C102.773 78.7122 101.951 79.2249 100.991 79.6318C100.031 80.0225 98.8916 80.2178 97.5732 80.2178C95.8968 80.2178 94.375 79.8841 93.0078 79.2168C91.6569 78.5332 90.5827 77.5973 89.7852 76.4092C89.0039 75.2048 88.6133 73.8376 88.6133 72.3076C88.6133 70.9242 88.8737 69.6953 89.3945 68.6211C89.9154 67.5469 90.6803 66.6436 91.6895 65.9111C92.7148 65.1624 93.9925 64.6009 95.5225 64.2266C97.0524 63.8359 98.8265 63.6406 100.845 63.6406H104.922Z" fill="#FFD000"/>
<path d="M123.916 42.2295V79.7295H116.86V42.2295H123.916Z" fill="#FFD000"/>
<path d="M58.099 96.4708V117.125H51.0677V90.709H57.6839L58.099 96.4708ZM66.0579 90.5381L65.9359 97.0567C65.5941 97.0079 65.179 96.9672 64.6908 96.9346C64.2188 96.8858 63.7874 96.8614 63.3968 96.8614C62.404 96.8614 61.5413 96.9916 60.8089 97.252C60.0928 97.4961 59.4906 97.8624 59.0023 98.3506C58.5303 98.8389 58.1722 99.433 57.9281 100.133C57.7002 100.833 57.57 101.63 57.5374 102.525L56.1214 102.086C56.1214 100.377 56.2923 98.8064 56.6341 97.3741C56.9759 95.9255 57.4723 94.6641 58.1234 93.5899C58.7907 92.5157 59.6045 91.6856 60.5648 91.0997C61.5251 90.5137 62.6237 90.2208 63.8607 90.2208C64.2513 90.2208 64.6501 90.2533 65.057 90.3184C65.4639 90.3672 65.7975 90.4405 66.0579 90.5381Z" fill="#FFD000"/>
<path d="M81.0482 117.613C78.9974 117.613 77.1582 117.288 75.5306 116.637C73.903 115.969 72.5195 115.05 71.3802 113.878C70.2572 112.706 69.3945 111.347 68.7923 109.801C68.1901 108.238 67.889 106.578 67.889 104.82V103.844C67.889 101.842 68.1738 100.011 68.7435 98.3506C69.3132 96.6905 70.127 95.25 71.1849 94.0293C72.2591 92.8086 73.5612 91.8728 75.0911 91.2217C76.6211 90.5544 78.3464 90.2208 80.2669 90.2208C82.1387 90.2208 83.7988 90.53 85.2474 91.1485C86.696 91.767 87.9085 92.6459 88.8851 93.7852C89.8779 94.9245 90.6266 96.2917 91.1312 97.8868C91.6357 99.4655 91.888 101.223 91.888 103.16V106.09H70.8919V101.402H84.9788V100.865C84.9788 99.8887 84.7998 99.018 84.4417 98.253C84.0999 97.4717 83.5791 96.8532 82.8792 96.3975C82.1794 95.9418 81.2842 95.7139 80.1937 95.7139C79.266 95.7139 78.4684 95.9174 77.8011 96.3243C77.1338 96.7312 76.5885 97.3008 76.1654 98.0333C75.7585 98.7657 75.4492 99.6283 75.2376 100.621C75.0423 101.598 74.9447 102.672 74.9447 103.844V104.82C74.9447 105.878 75.0911 106.855 75.3841 107.75C75.6934 108.645 76.1247 109.418 76.6781 110.069C77.2477 110.72 77.9313 111.225 78.7288 111.583C79.5426 111.941 80.4622 112.12 81.4876 112.12C82.7572 112.12 83.9372 111.876 85.0277 111.388C86.1344 110.883 87.0866 110.126 87.8841 109.117L91.3021 112.828C90.7487 113.626 89.9919 114.391 89.0316 115.123C88.0876 115.856 86.9482 116.458 85.6136 116.93C84.279 117.385 82.7572 117.613 81.0482 117.613Z" fill="#FFD000"/>
<path d="M102.923 95.7872V127.281H95.8919V90.709H102.41L102.923 95.7872ZM119.647 103.624V104.137C119.647 106.057 119.419 107.84 118.963 109.483C118.524 111.127 117.873 112.56 117.01 113.78C116.147 114.985 115.073 115.929 113.787 116.612C112.518 117.28 111.053 117.613 109.393 117.613C107.782 117.613 106.382 117.288 105.194 116.637C104.006 115.986 103.005 115.074 102.191 113.902C101.393 112.714 100.75 111.339 100.262 109.776C99.7738 108.214 99.3994 106.537 99.139 104.747V103.404C99.3994 101.484 99.7738 99.726 100.262 98.1309C100.75 96.5196 101.393 95.128 102.191 93.9561C103.005 92.768 103.997 91.8484 105.169 91.1973C106.357 90.5463 107.749 90.2208 109.344 90.2208C111.021 90.2208 112.493 90.5381 113.763 91.1729C115.049 91.8077 116.123 92.7191 116.986 93.9073C117.865 95.0954 118.524 96.5114 118.963 98.1553C119.419 99.7992 119.647 101.622 119.647 103.624ZM112.591 104.137V103.624C112.591 102.501 112.493 101.467 112.298 100.523C112.119 99.5632 111.826 98.725 111.419 98.0088C111.029 97.2927 110.508 96.7393 109.857 96.3487C109.222 95.9418 108.449 95.7383 107.537 95.7383C106.577 95.7383 105.755 95.893 105.072 96.2022C104.404 96.5114 103.859 96.959 103.436 97.545C103.013 98.1309 102.695 98.8308 102.484 99.6446C102.272 100.458 102.142 101.378 102.093 102.403V105.797C102.174 107.001 102.402 108.084 102.777 109.044C103.151 109.988 103.729 110.737 104.51 111.29C105.291 111.843 106.317 112.12 107.586 112.12C108.514 112.12 109.295 111.917 109.93 111.51C110.565 111.087 111.077 110.509 111.468 109.776C111.875 109.044 112.16 108.198 112.323 107.237C112.502 106.277 112.591 105.244 112.591 104.137Z" fill="#FFD000"/>
<path d="M33.0166 104.454H23.959V98.7413H33.0166C34.4163 98.7413 35.5557 98.5134 36.4346 98.0577C37.3135 97.5857 37.9564 96.9346 38.3633 96.1045C38.7702 95.2745 38.9736 94.3386 38.9736 93.2969C38.9736 92.239 38.7702 91.2543 38.3633 90.3428C37.9564 89.4314 37.3135 88.6989 36.4346 88.1456C35.5557 87.5922 34.4163 87.3155 33.0166 87.3155H26.498V117.125H19.1738V81.5782H33.0166C35.7998 81.5782 38.1842 82.0827 40.1699 83.0918C42.1719 84.0847 43.7018 85.46 44.7598 87.2178C45.8177 88.9756 46.3467 90.9857 46.3467 93.2481C46.3467 95.543 45.8177 97.5287 44.7598 99.2051C43.7018 100.882 42.1719 102.176 40.1699 103.087C38.1842 103.998 35.7998 104.454 33.0166 104.454Z" fill="#FFD000"/>
<path d="M26.498 118.986V154.533H19.1738V118.986H26.498ZM40.6582 134.171V139.884H24.4961V134.171H40.6582ZM42.3672 118.986V124.723H24.4961V118.986H42.3672Z" fill="#FFD000"/>
<path d="M62.026 147.863V127.771H69.0573V154.187H62.4411L62.026 147.863ZM62.8073 142.444L64.8825 142.395C64.8825 144.153 64.679 145.788 64.2721 147.302C63.8652 148.799 63.2549 150.101 62.4411 151.208C61.6273 152.299 60.6019 153.153 59.3649 153.772C58.1279 154.374 56.6712 154.675 54.9948 154.675C53.709 154.675 52.5208 154.496 51.4303 154.138C50.3561 153.764 49.4284 153.186 48.6471 152.404C47.8822 151.607 47.2799 150.59 46.8405 149.353C46.4173 148.099 46.2057 146.594 46.2057 144.836V127.771H53.237V144.885C53.237 145.666 53.3265 146.325 53.5055 146.862C53.7008 147.4 53.9694 147.839 54.3112 148.181C54.653 148.523 55.0518 148.767 55.5075 148.913C55.9795 149.06 56.5003 149.133 57.07 149.133C58.5186 149.133 59.6579 148.84 60.488 148.254C61.3343 147.668 61.9284 146.871 62.2702 145.862C62.6283 144.836 62.8073 143.697 62.8073 142.444Z" fill="#FFD000"/>
<path d="M81.3132 133.41V154.187H74.2819V127.771H80.8737L81.3132 133.41ZM80.2878 140.051H78.3835C78.3835 138.098 78.6357 136.34 79.1403 134.778C79.6449 133.199 80.3529 131.856 81.2643 130.749C82.1758 129.626 83.2581 128.772 84.5114 128.186C85.7809 127.584 87.1969 127.282 88.7594 127.282C89.9964 127.282 91.1276 127.461 92.153 127.82C93.1784 128.178 94.0573 128.747 94.7897 129.529C95.5384 130.31 96.1081 131.343 96.4987 132.629C96.9056 133.915 97.1091 135.486 97.1091 137.341V154.187H90.029V137.317C90.029 136.145 89.8662 135.233 89.5407 134.582C89.2152 133.931 88.735 133.475 88.1003 133.215C87.4818 132.938 86.7168 132.8 85.8053 132.8C84.8613 132.8 84.0394 132.987 83.3395 133.362C82.6559 133.736 82.0863 134.257 81.6305 134.924C81.1911 135.575 80.8574 136.34 80.6296 137.219C80.4017 138.098 80.2878 139.042 80.2878 140.051Z" fill="#FFD000"/>
<path d="M118.056 148.425V116.687H125.136V154.187H118.764L118.056 148.425ZM101.357 141.296V140.783C101.357 138.765 101.585 136.934 102.041 135.29C102.496 133.63 103.164 132.206 104.043 131.018C104.922 129.83 106.004 128.91 107.29 128.259C108.576 127.608 110.04 127.282 111.684 127.282C113.23 127.282 114.581 127.608 115.737 128.259C116.909 128.91 117.902 129.838 118.715 131.042C119.546 132.23 120.213 133.638 120.717 135.266C121.222 136.877 121.588 138.643 121.816 140.564V141.687C121.588 143.526 121.222 145.235 120.717 146.814C120.213 148.392 119.546 149.776 118.715 150.964C117.902 152.136 116.909 153.047 115.737 153.698C114.565 154.349 113.198 154.675 111.635 154.675C109.992 154.675 108.527 154.341 107.241 153.674C105.971 153.007 104.897 152.071 104.018 150.866C103.156 149.662 102.496 148.246 102.041 146.618C101.585 144.991 101.357 143.217 101.357 141.296ZM108.388 140.783V141.296C108.388 142.387 108.47 143.404 108.632 144.348C108.812 145.292 109.096 146.13 109.487 146.862C109.894 147.579 110.415 148.14 111.049 148.547C111.701 148.938 112.49 149.133 113.418 149.133C114.622 149.133 115.615 148.864 116.396 148.327C117.177 147.774 117.771 147.017 118.178 146.057C118.602 145.097 118.846 143.99 118.911 142.737V139.538C118.862 138.513 118.715 137.593 118.471 136.779C118.243 135.949 117.902 135.241 117.446 134.655C117.007 134.07 116.453 133.614 115.786 133.288C115.135 132.963 114.362 132.8 113.466 132.8C112.555 132.8 111.774 133.012 111.123 133.435C110.472 133.842 109.943 134.403 109.536 135.119C109.145 135.835 108.852 136.682 108.657 137.658C108.478 138.619 108.388 139.66 108.388 140.783Z" fill="#FFD000"/>
<path d="M144.887 148.23V136.462C144.887 135.616 144.749 134.891 144.472 134.289C144.196 133.671 143.764 133.191 143.178 132.849C142.609 132.507 141.868 132.336 140.957 132.336C140.175 132.336 139.5 132.474 138.93 132.751C138.361 133.012 137.921 133.394 137.612 133.899C137.303 134.387 137.148 134.965 137.148 135.632H130.117C130.117 134.509 130.377 133.443 130.898 132.434C131.419 131.425 132.176 130.538 133.169 129.773C134.161 128.991 135.341 128.381 136.709 127.942C138.092 127.502 139.638 127.282 141.347 127.282C143.398 127.282 145.221 127.624 146.816 128.308C148.411 128.991 149.664 130.017 150.576 131.384C151.504 132.751 151.967 134.46 151.967 136.511V147.815C151.967 149.263 152.057 150.451 152.236 151.379C152.415 152.291 152.675 153.088 153.017 153.772V154.187H145.913C145.571 153.471 145.311 152.575 145.132 151.501C144.969 150.411 144.887 149.32 144.887 148.23ZM145.815 138.098L145.864 142.077H141.933C141.006 142.077 140.2 142.183 139.516 142.395C138.833 142.606 138.271 142.907 137.832 143.298C137.392 143.672 137.067 144.112 136.855 144.616C136.66 145.121 136.562 145.674 136.562 146.277C136.562 146.879 136.701 147.424 136.977 147.912C137.254 148.384 137.653 148.759 138.174 149.035C138.694 149.296 139.305 149.426 140.005 149.426C141.063 149.426 141.982 149.214 142.763 148.791C143.545 148.368 144.147 147.847 144.57 147.229C145.009 146.61 145.237 146.024 145.254 145.471L147.109 148.449C146.849 149.117 146.491 149.808 146.035 150.525C145.595 151.241 145.034 151.916 144.35 152.551C143.667 153.169 142.845 153.682 141.884 154.089C140.924 154.48 139.785 154.675 138.466 154.675C136.79 154.675 135.268 154.341 133.901 153.674C132.55 152.99 131.476 152.055 130.678 150.866C129.897 149.662 129.507 148.295 129.507 146.765C129.507 145.381 129.767 144.153 130.288 143.078C130.809 142.004 131.574 141.101 132.583 140.368C133.608 139.62 134.886 139.058 136.416 138.684C137.946 138.293 139.72 138.098 141.738 138.098H145.815Z" fill="#FFD000"/>
<path d="M164.834 151.208L171.84 127.771H179.384L168.764 158.166C168.536 158.834 168.227 159.55 167.837 160.315C167.462 161.08 166.95 161.804 166.299 162.487C165.664 163.187 164.858 163.757 163.882 164.196C162.921 164.636 161.741 164.856 160.341 164.856C159.674 164.856 159.129 164.815 158.706 164.734C158.283 164.652 157.778 164.538 157.192 164.392V159.24C157.371 159.24 157.558 159.24 157.754 159.24C157.949 159.257 158.136 159.265 158.315 159.265C159.243 159.265 160 159.159 160.586 158.947C161.172 158.736 161.644 158.41 162.002 157.971C162.36 157.548 162.645 156.994 162.856 156.311L164.834 151.208ZM161.904 127.771L167.641 146.911L168.642 154.358L163.857 154.87L154.36 127.771H161.904Z" fill="#FFD000"/>
<path d="M134.431 120.858C131.735 120.044 132.07 116.94 131.59 110.643L131.111 105.605C131.111 105.605 129.553 105.605 129.673 104.625C129.793 103.646 132.07 103.506 132.07 103.506H177.12C177.12 103.506 179.995 103.646 179.636 104.625C179.276 105.605 177.599 105.605 177.599 105.605L177.12 110.643C177.12 110.643 176.388 117.873 176.172 118.959C175.956 120.044 175.231 120.42 174.231 120.858C173.231 121.296 162.733 120.966 162.263 120.858C161.792 120.749 161.664 120.158 161.664 120.158V111.482C161.664 111.482 161.664 110.643 160.226 110.643C158.788 110.643 158.908 111.482 158.908 111.482L158.548 120.158C158.548 120.158 158.668 120.858 157.83 120.858H134.431Z" fill="black" stroke="white" stroke-width="2"/>
<path d="M134.431 120.858C131.735 120.044 132.07 116.94 131.59 110.643L131.111 105.605C131.111 105.605 129.553 105.605 129.673 104.625C129.793 103.646 132.07 103.506 132.07 103.506H177.12C177.12 103.506 179.995 103.646 179.636 104.625C179.276 105.605 177.599 105.605 177.599 105.605L177.12 110.643C177.12 110.643 176.388 117.873 176.172 118.959C175.956 120.044 175.231 120.42 174.231 120.858C173.231 121.296 162.733 120.966 162.263 120.858C161.792 120.749 161.664 120.158 161.664 120.158V111.482C161.664 111.482 161.664 110.643 160.226 110.643C158.788 110.643 158.908 111.482 158.908 111.482L158.548 120.158C158.548 120.158 158.668 120.858 157.83 120.858H134.431Z" fill="black" stroke="white" stroke-width="2"/>
<path d="M134.431 57.7524C131.735 56.9385 132.07 53.8342 131.59 47.5371L131.111 42.4994C131.111 42.4994 129.553 42.4994 129.673 41.5199C129.793 40.5403 132.07 40.4004 132.07 40.4004H177.12C177.12 40.4004 179.995 40.5403 179.636 41.5199C179.276 42.4994 177.599 42.4994 177.599 42.4994L177.12 47.5371C177.12 47.5371 176.388 54.768 176.172 55.8532C175.956 56.9385 175.231 57.3144 174.231 57.7524C173.231 58.1903 162.733 57.861 162.263 57.7524C161.792 57.6438 161.664 57.0527 161.664 57.0527V48.3767C161.664 48.3767 161.664 47.5371 160.226 47.5371C158.788 47.5371 158.908 48.3767 158.908 48.3767L158.548 57.0527C158.548 57.0527 158.668 57.7524 157.83 57.7524H134.431Z" fill="black" stroke="white" stroke-width="2"/>
<path d="M134.431 78.7875C131.735 77.9736 132.07 74.8694 131.59 68.5723L131.111 63.5346C131.111 63.5346 129.553 63.5346 129.673 62.555C129.793 61.5755 132.07 61.4355 132.07 61.4355H177.12C177.12 61.4355 179.995 61.5755 179.636 62.555C179.276 63.5346 177.599 63.5346 177.599 63.5346L177.12 68.5723C177.12 68.5723 176.388 75.8031 176.172 76.8884C175.956 77.9736 175.231 78.3496 174.231 78.7875C173.231 79.2255 162.733 78.8962 162.263 78.7875C161.792 78.6789 161.664 78.0879 161.664 78.0879V69.4119C161.664 69.4119 161.664 68.5723 160.226 68.5723C158.788 68.5723 158.908 69.4119 158.908 69.4119L158.548 78.0879C158.548 78.0879 158.668 78.7875 157.83 78.7875H134.431Z" fill="black" stroke="white" stroke-width="2"/>
<path d="M134.431 99.8227C131.735 99.0088 132.07 95.9045 131.59 89.6074L131.111 84.5697C131.111 84.5697 129.553 84.5697 129.673 83.5902C129.793 82.6106 132.07 82.4707 132.07 82.4707H177.12C177.12 82.4707 179.995 82.6106 179.636 83.5902C179.276 84.5697 177.599 84.5697 177.599 84.5697L177.12 89.6074C177.12 89.6074 176.388 96.8383 176.172 97.9235C175.956 99.0088 175.231 99.3848 174.231 99.8227C173.231 100.261 162.733 99.9313 162.263 99.8227C161.792 99.7141 161.664 99.123 161.664 99.123V90.447C161.664 90.447 161.664 89.6074 160.226 89.6074C158.788 89.6074 158.908 90.447 158.908 90.447L158.548 99.123C158.548 99.123 158.668 99.8227 157.83 99.8227H134.431Z" fill="black" stroke="white" stroke-width="2"/>
<path d="M134.431 57.7524C131.735 56.9385 132.07 53.8342 131.59 47.5371L131.111 42.4994C131.111 42.4994 129.553 42.4994 129.673 41.5199C129.793 40.5403 132.07 40.4004 132.07 40.4004H177.12C177.12 40.4004 179.995 40.5403 179.636 41.5199C179.276 42.4994 177.599 42.4994 177.599 42.4994L177.12 47.5371C177.12 47.5371 176.388 54.768 176.172 55.8532C175.956 56.9385 175.231 57.3144 174.231 57.7524C173.231 58.1903 162.733 57.861 162.263 57.7524C161.792 57.6438 161.664 57.0527 161.664 57.0527V48.3767C161.664 48.3767 161.664 47.5371 160.226 47.5371C158.788 47.5371 158.908 48.3767 158.908 48.3767L158.548 57.0527C158.548 57.0527 158.668 57.7524 157.83 57.7524H134.431Z" fill="black" stroke="white" stroke-width="2"/>
</svg>
