<svg width="154" height="247" viewBox="0 0 154 247" fill="none" xmlns="http://www.w3.org/2000/svg">
<path d="M94.9668 22.3293C83.4507 34.5783 59.895 59.809 42.5162 78.3394C25.1373 96.8699 10.5852 113.202 10.1664 114.667C9.74762 116.343 10.7945 120.426 13.0978 126.498C18.6464 141.154 16.3432 139.793 36.3394 140.526C45.8663 140.84 54.0323 141.364 54.3464 141.783C54.6604 142.097 42.4115 164.605 26.9171 191.825C-0.198115 239.774 -1.03565 241.344 0.430037 243.962C1.26757 245.427 2.73326 246.788 3.78018 246.998C4.8271 247.207 26.7077 232.132 56.5449 210.46C84.707 190.15 116.219 167.432 126.688 159.894C141.345 149.32 146.056 145.447 146.894 143.039C149.197 135.92 154.013 109.433 153.176 107.967C152.652 107.13 139.67 100.429 124.176 93.2056C108.786 85.8772 96.2231 79.491 96.3278 78.9676C96.4325 78.3394 102.505 61.484 109.728 41.3832C120.826 10.9179 122.815 4.53173 121.873 2.54258C119.36 -2.90139 116.743 -1.01693 94.9668 22.3293ZM100.097 39.9175C90.0463 67.5562 85.5446 81.3755 85.9633 83.6787C86.4868 86.8195 87.429 87.4476 111.613 98.5449C123.129 103.78 134.226 108.909 136.53 110.061L140.508 112.155L136.111 116.133C97.3747 151.31 25.242 215.904 25.0326 215.59C24.8232 215.486 31.5235 203.237 39.8989 188.58C70.8877 134.035 78.8443 119.483 78.8443 117.599C78.8443 115.819 77.6927 115.505 68.6892 114.982C63.0358 114.563 50.2634 114.249 40.3176 114.249H22.206L52.8807 81.4802C69.6314 63.5779 86.8009 45.2568 90.9885 40.9644C95.1762 36.6721 99.7826 31.5422 101.353 29.6578C102.923 27.7733 104.389 26.4123 104.598 26.517C104.808 26.7264 102.714 32.7985 100.097 39.9175ZM140.612 128.382C139.461 133.931 138.519 138.747 138.519 138.851C138.519 139.061 133.703 142.62 127.84 146.808C121.873 150.995 99.8873 166.909 78.8443 182.089C57.8012 197.269 42.0974 208.262 43.7725 206.482C48.5883 201.562 142.183 117.599 142.497 117.808C142.602 118.018 141.764 122.729 140.612 128.382ZM56.0214 120.216L72.3534 120.844L69.6314 125.869L66.8047 130.999H55.1839C48.7977 130.999 39.2707 130.685 34.0361 130.371L24.5092 129.638L22.9388 125.555C21.9966 123.357 21.2637 121.054 21.2637 120.53C21.2637 119.274 32.6751 119.169 56.0214 120.216Z" fill="black"/>
<path d="M100.097 39.9175C90.0463 67.5562 85.5446 81.3755 85.9633 83.6787C86.4868 86.8195 87.429 87.4476 111.613 98.5449C123.129 103.78 134.226 108.909 136.53 110.061L140.508 112.155L136.111 116.133C97.3747 151.31 25.242 215.904 25.0326 215.59C24.8232 215.486 31.5235 203.237 39.8989 188.58C70.8877 134.035 78.8443 119.483 78.8443 117.599C78.8443 115.819 77.6927 115.505 68.6892 114.982C63.0358 114.563 50.2634 114.249 40.3176 114.249H22.206L52.8807 81.4802C69.6314 63.5779 86.8009 45.2568 90.9885 40.9644C95.1762 36.6721 99.7826 31.5422 101.353 29.6578C102.923 27.7733 104.389 26.4123 104.598 26.517C104.808 26.7264 102.714 32.7985 100.097 39.9175Z" fill="#FFDD01"/>
<path d="M140.612 128.382C139.461 133.931 138.519 138.747 138.519 138.851C138.519 139.061 133.703 142.62 127.84 146.808C121.873 150.995 99.8873 166.909 78.8443 182.089C57.8012 197.269 42.0974 208.262 43.7725 206.482C48.5883 201.562 142.183 117.599 142.497 117.808C142.602 118.018 141.764 122.729 140.612 128.382Z" fill="#FFDD01"/>
<path d="M56.0214 120.216L72.3534 120.844L69.6314 125.869L66.8047 130.999H55.1839C48.7977 130.999 39.2707 130.685 34.0361 130.371L24.5092 129.638L22.9388 125.555C21.9966 123.357 21.2637 121.054 21.2637 120.53C21.2637 119.274 32.6751 119.169 56.0214 120.216Z" fill="#FFDD01"/>
</svg>
